<svg width="34" height="13" viewBox="0 0 34 13" fill="none" xmlns="http://www.w3.org/2000/svg">
<path d="M0.472 12V0.719999H4.776C5.928 0.719999 6.81867 0.976 7.448 1.488C8.088 2 8.408 2.73067 8.408 3.68C8.408 4.29867 8.24267 4.82667 7.912 5.264C7.58133 5.70133 7.13333 6.02133 6.568 6.224C7.21867 6.384 7.73067 6.69867 8.104 7.168C8.47733 7.62667 8.664 8.21333 8.664 8.928C8.664 9.93067 8.344 10.6933 7.704 11.216C7.064 11.7387 6.15733 12 4.984 12H0.472ZM1.432 5.872H4.664C5.56 5.872 6.24267 5.69067 6.712 5.328C7.18133 4.95467 7.416 4.416 7.416 3.712C7.416 3.008 7.18133 2.47467 6.712 2.112C6.24267 1.73867 5.56 1.552 4.664 1.552H1.432V5.872ZM1.432 11.168H4.904C6.74933 11.168 7.672 10.4267 7.672 8.944C7.672 8.176 7.44267 7.61067 6.984 7.248C6.52533 6.88533 5.832 6.704 4.904 6.704H1.432V11.168ZM13.4144 12.128C12.8917 12.128 12.4224 12.0267 12.0064 11.824C11.601 11.6213 11.2757 11.344 11.0304 10.992C10.7957 10.64 10.6784 10.2453 10.6784 9.808C10.6784 9.232 10.8224 8.784 11.1104 8.464C11.3984 8.13333 11.8837 7.89867 12.5664 7.76C13.249 7.62133 14.1877 7.552 15.3824 7.552H15.8784V6.976C15.8784 6.26133 15.7344 5.744 15.4464 5.424C15.1584 5.09333 14.6997 4.928 14.0704 4.928C13.601 4.928 13.1477 4.99733 12.7104 5.136C12.2837 5.27467 11.841 5.49333 11.3824 5.792L10.9984 5.04C11.4037 4.752 11.8837 4.52267 12.4384 4.352C12.993 4.18133 13.5317 4.096 14.0544 4.096C14.993 4.096 15.6864 4.336 16.1344 4.816C16.593 5.296 16.8224 6.032 16.8224 7.024V12H15.8944V10.608C15.681 11.088 15.3557 11.4613 14.9184 11.728C14.4917 11.9947 13.9904 12.128 13.4144 12.128ZM13.5424 11.344C14.001 11.344 14.401 11.2373 14.7424 11.024C15.0944 10.8 15.3717 10.496 15.5744 10.112C15.777 9.728 15.8784 9.29067 15.8784 8.8V8.272H15.3984C14.4384 8.272 13.6864 8.31467 13.1424 8.4C12.609 8.48533 12.2357 8.63467 12.0224 8.848C11.809 9.06133 11.7024 9.35467 11.7024 9.728C11.7024 10.208 11.8677 10.5973 12.1984 10.896C12.529 11.1947 12.977 11.344 13.5424 11.344ZM22.5418 12.128C21.7844 12.128 21.1338 11.9627 20.5898 11.632C20.0458 11.2907 19.6244 10.816 19.3258 10.208C19.0378 9.58933 18.8938 8.87467 18.8938 8.064C18.8938 6.83733 19.2138 5.872 19.8538 5.168C20.5044 4.45333 21.4004 4.096 22.5418 4.096C23.0111 4.096 23.4751 4.18667 23.9338 4.368C24.3924 4.54933 24.7764 4.8 25.0858 5.12L24.7018 5.856C24.3711 5.536 24.0191 5.30667 23.6458 5.168C23.2724 5.01867 22.9151 4.944 22.5738 4.944C21.7098 4.944 21.0431 5.216 20.5738 5.76C20.1151 6.304 19.8858 7.07733 19.8858 8.08C19.8858 9.08267 20.1151 9.872 20.5738 10.448C21.0431 11.0133 21.7098 11.296 22.5738 11.296C22.9151 11.296 23.2724 11.2267 23.6458 11.088C24.0191 10.9387 24.3711 10.704 24.7018 10.384L25.0858 11.12C24.7764 11.4293 24.3871 11.6747 23.9178 11.856C23.4591 12.0373 23.0004 12.128 22.5418 12.128ZM26.7175 12V0.719999H27.6935V7.76H27.7255L31.5495 4.24H32.8455L28.7655 7.984L33.2295 12H31.9335L27.7255 8.272H27.6935V12H26.7175Z" fill="#111517"/>
</svg>
